REM DIRINDEX 1\2,1\3\7,1\3\8,1\4\9,1\4\10,1\4\11,1\5\12,1\5\13,1\5\14,1\6\15,1\6\16,1\6\17
REM DIRNAME "folder01","folder02","folder03","folder04","folder05","folder06","folder07","folder08","folder09","folder10","folder11","folder12","folder13","folder14","folder15","folder16","folder17"
TITLE ""
FILE "2Q_t_0518-0534.mp3" MP3
  TRACK 01 AUDIO
    TITLE "7:cjc174_2793"
    INDEX 01 00:00:00
  TRACK 02 AUDIO
    TITLE "0:"
    INDEX 01 00:01:08
  TRACK 03 AUDIO
    TITLE "8:cjc174_2794"
    INDEX 01 00:01:53
  TRACK 04 AUDIO
    TITLE "0:"
    INDEX 01 00:03:30
  TRACK 05 AUDIO
    TITLE "7:cjc174_2795"
    INDEX 01 00:04:00
  TRACK 06 AUDIO
    TITLE "0:"
    INDEX 01 00:05:04
  TRACK 07 AUDIO
    TITLE "8:cjc174_2796"
    INDEX 01 00:05:51
  TRACK 08 AUDIO
    TITLE "0:"
    INDEX 01 00:07:61
  TRACK 09 AUDIO
    TITLE "7:cjc174_2797"
    INDEX 01 00:08:29
  TRACK 10 AUDIO
    TITLE "0:"
    INDEX 01 00:09:52
  TRACK 11 AUDIO
    TITLE "8:cjc174_2798"
    INDEX 01 00:10:22
  TRACK 12 AUDIO
    TITLE "0:"
    INDEX 01 00:13:70
  TRACK 13 AUDIO
    TITLE "7:cjc174_2799"
    INDEX 01 00:14:40
  TRACK 14 AUDIO
    TITLE "0:"
    INDEX 01 00:15:27
  TRACK 15 AUDIO
    TITLE "8:cjc174_2800"
    INDEX 01 00:16:09
  TRACK 16 AUDIO
    TITLE "0:"
    INDEX 01 00:19:15
  TRACK 17 AUDIO
    TITLE "7:cjc174_2801"
    INDEX 01 00:19:61
  TRACK 18 AUDIO
    TITLE "0:"
    INDEX 01 00:20:66
  TRACK 19 AUDIO
    TITLE "8:cjc174_2802"
    INDEX 01 00:21:36
  TRACK 20 AUDIO
    TITLE "0:"
    INDEX 01 00:22:59
  TRACK 21 AUDIO
    TITLE "7:cjc174_2803"
    INDEX 01 00:23:27
  TRACK 22 AUDIO
    TITLE "0:"
    INDEX 01 00:24:58
  TRACK 23 AUDIO
    TITLE "8:cjc174_2804"
    INDEX 01 00:25:28
  TRACK 24 AUDIO
    TITLE "0:"
    INDEX 01 00:26:68
  TRACK 25 AUDIO
    TITLE "2:cjc174_2805"
    INDEX 01 00:27:37
  TRACK 26 AUDIO
    TITLE "0:"
    INDEX 01 00:28:42
  TRACK 27 AUDIO
    TITLE "7:cjc174_2806"
    INDEX 01 00:29:14
  TRACK 28 AUDIO
    TITLE "0:"
    INDEX 01 00:30:19
  TRACK 29 AUDIO
    TITLE "8:cjc174_2807"
    INDEX 01 00:30:66
  TRACK 30 AUDIO
    TITLE "0:"
    INDEX 01 00:32:06
  TRACK 31 AUDIO
    TITLE "7:cjc174_2808"
    INDEX 01 00:32:51
  TRACK 32 AUDIO
    TITLE "0:"
    INDEX 01 00:33:51
  TRACK 33 AUDIO
    TITLE "8:cjc174_2809"
    INDEX 01 00:34:33
  TRACK 34 AUDIO
    TITLE "0:"
    INDEX 01 00:35:36
  TRACK 35 AUDIO
    TITLE "7:cjc174_2810"
    INDEX 01 00:36:04
  TRACK 36 AUDIO
    TITLE "0:"
    INDEX 01 00:37:35
  TRACK 37 AUDIO
    TITLE "8:cjc174_2811"
    INDEX 01 00:38:07
  TRACK 38 AUDIO
    TITLE "0:"
    INDEX 01 00:39:22
  TRACK 39 AUDIO
    TITLE "7:cjc174_2812"
    INDEX 01 00:39:67
  TRACK 40 AUDIO
    TITLE "0:"
    INDEX 01 00:41:07
  TRACK 41 AUDIO
    TITLE "8:cjc174_2813"
    INDEX 01 00:41:58
  TRACK 42 AUDIO
    TITLE "0:"
    INDEX 01 00:44:06
  TRACK 43 AUDIO
    TITLE "7:cjc174_2814"
    INDEX 01 00:44:51
  TRACK 44 AUDIO
    TITLE "0:"
    INDEX 01 00:45:62
  TRACK 45 AUDIO
    TITLE "8:cjc174_2815"
    INDEX 01 00:46:32
  TRACK 46 AUDIO
    TITLE "0:"
    INDEX 01 00:48:41
  TRACK 47 AUDIO
    TITLE "7:cjc174_2816"
    INDEX 01 00:49:09
  TRACK 48 AUDIO
    TITLE "0:"
    INDEX 01 00:50:30
  TRACK 49 AUDIO
    TITLE "8:cjc174_2817"
    INDEX 01 00:51:06
  TRACK 50 AUDIO
    TITLE "0:"
    INDEX 01 00:52:19
  TRACK 51 AUDIO
    TITLE "7:cjc174_2818"
    INDEX 01 00:52:64
  TRACK 52 AUDIO
    TITLE "0:"
    INDEX 01 00:54:04
  TRACK 53 AUDIO
    TITLE "8:cjc174_2819"
    INDEX 01 00:54:59
  TRACK 54 AUDIO
    TITLE "0:"
    INDEX 01 00:58:23
  TRACK 55 AUDIO
    TITLE "7:cjc174_2820"
    INDEX 01 00:58:67
  TRACK 56 AUDIO
    TITLE "0:"
    INDEX 01 01:00:12
  TRACK 57 AUDIO
    TITLE "8:cjc174_2821"
    INDEX 01 01:00:60
  TRACK 58 AUDIO
    TITLE "0:"
    INDEX 01 01:03:07
  TRACK 59 AUDIO
    TITLE "7:cjc174_2822"
    INDEX 01 01:03:50
  TRACK 60 AUDIO
    TITLE "0:"
    INDEX 01 01:04:59
  TRACK 61 AUDIO
    TITLE "8:cjc174_2823"
    INDEX 01 01:05:29
  TRACK 62 AUDIO
    TITLE "0:"
    INDEX 01 01:06:46
  TRACK 63 AUDIO
    TITLE "7:cjc174_2824"
    INDEX 01 01:07:15
  TRACK 64 AUDIO
    TITLE "0:"
    INDEX 01 01:08:32
  TRACK 65 AUDIO
    TITLE "8:cjc174_2825"
    INDEX 01 01:09:04
  TRACK 66 AUDIO
    TITLE "0:"
    INDEX 01 01:10:21
  TRACK 67 AUDIO
    TITLE "7:cjc174_2826"
    INDEX 01 01:10:66
  TRACK 68 AUDIO
    TITLE "0:"
    INDEX 01 01:12:06
  TRACK 69 AUDIO
    TITLE "8:cjc174_2827"
    INDEX 01 01:12:53
  TRACK 70 AUDIO
    TITLE "0:"
    INDEX 01 01:15:63
